<?xml version="1.0" encoding="UTF-8"?>
<svg class="" width="512px" height="512px" enable-background="new 0 0 548.291 548.291" version="1.1" viewBox="0 0 548.29 548.29" xml:space="preserve" xmlns="http://www.w3.org/2000/svg">
	<g fill="#fff">
		<path class="active-path" d="m274.14 410.55c-5.751 0-9.648 0.561-11.696 1.111v36.931c2.413 0.556 5.386 0.745 9.471 0.745 15.034 0 24.305-7.611 24.305-20.42-1e-3 -11.505-7.98-18.367-22.08-18.367z" data-old_color="#000000" data-original="#000000"/>
		<path class="active-path" d="m159.45 411.29h-0.365c-1.861 7.422-3.717 16.897-5.753 24.125l-7.423 26.541h27.646l-7.791-26.541c-2.231-7.421-4.456-16.703-6.314-24.125z" data-old_color="#000000" data-original="#000000"/>
		<path class="active-path" d="m472.93 131.38c-0.031-2.514-0.839-4.992-2.566-6.96l-105.71-120.76c-0.031-0.029-0.062-0.044-0.084-0.07-0.63-0.709-1.365-1.284-2.142-1.795-0.231-0.149-0.463-0.29-0.704-0.42-0.672-0.37-1.376-0.667-2.121-0.888-0.2-0.058-0.377-0.144-0.577-0.186-0.797-0.195-1.628-0.308-2.467-0.308h-259.8c-11.853 0-21.502 9.644-21.502 21.502v505.29c0 11.854 9.649 21.501 21.502 21.501h354.78c11.853 0 21.503-9.647 21.503-21.501v-394.2c1e-3 -0.404-0.064-0.8-0.106-1.205zm-285.65 383.83-9.648-32.104h-35.812l-8.901 32.104h-29.323l38.224-125.08h37.114l38.782 125.08h-30.436zm125.47-57.344c-9.658 9.092-23.946 13.175-40.652 13.175-3.702 0-7.045-0.188-9.647-0.556v44.714h-28.023v-123.4c8.725-1.475 20.977-2.587 38.226-2.587 17.447 0 29.884 3.332 38.235 10.011 7.973 6.309 13.349 16.704 13.349 28.961 8e-3 12.237-4.076 22.63-11.488 29.685zm98.92 57.344-30.625-54.006-10.762 13.177v40.829h-28.021v-125.08h28.021v55.303h0.557c2.786-4.824 5.752-9.275 8.541-13.737l28.395-41.565h34.697l-41.382 53.262 43.607 71.811h-33.028v9e-3zm-136.66-150.14 0.609-0.608c7.254-7.271 7.254-19.16-0.01-26.432-7.271-7.264-19.162-7.261-26.429 0l-27.042 27.04h-13.218l33.648-33.648-118.93-118.93-26.877 26.877v-13.208l20.265-20.278c7.278-7.27 7.278-19.163 0-26.431-5.473-5.464-13.504-6.7-20.265-3.935v-154.02h249.05v110.01c0 5.935 4.819 10.751 10.751 10.751h94.972v222.82h-176.53z" data-old_color="#000000" data-original="#000000"/>
		<path class="active-path" d="m291.42 223.48-24.794 7.819c-4.087-9.218-9.903-17.861-17.46-25.415-7.546-7.557-16.192-13.362-25.42-17.446l7.822-24.804c0.386-1.226-0.297-2.543-1.522-2.929-1.231-0.387-2.541 0.302-2.929 1.527l-7.709 24.425c-27.181-10.247-58.601-5.918-82.206 12.987l118.21 118.2c18.911-23.602 23.23-55.022 12.987-82.206l24.433-7.708c1.218-0.386 1.906-1.704 1.507-2.929-0.363-1.215-1.698-1.908-2.916-1.52zm-92.137-1.404c-5.292 5.284-13.869 5.284-19.16-5e-3 -5.289-5.289-5.289-13.874 0-19.164 5.281-5.289 13.869-5.289 19.171 0 5.284 5.301 5.284 13.875-0.011 19.169zm52.861 52.859c-5.302 5.285-13.869 5.285-19.17 0-5.289-5.297-5.278-13.876 0-19.16 5.302-5.289 13.869-5.289 19.17 0 5.295 5.289 5.295 13.874 0 19.16z" data-old_color="#000000" data-original="#000000"/>
	</g>
 </svg>
