<svg version="1.1" viewBox="0.0 0.0 1471.732283464567 303.002624671916" fill="none" stroke="none" stroke-linecap="square" stroke-miterlimit="10" xmlns:xlink="http://www.w3.org/1999/xlink" xmlns="http://www.w3.org/2000/svg"><clipPath id="p.0"><path d="m0 0l1471.7323 0l0 303.00262l-1471.7323 0l0 -303.00262z" clip-rule="nonzero"/></clipPath><g clip-path="url(#p.0)"><path fill="#000000" fill-opacity="0.0" d="m0 0l1471.7323 0l0 303.00262l-1471.7323 0z" fill-rule="evenodd"/><g filter="url(#shadowFilter-p.1)"><use xlink:href="#p.1" transform="matrix(1.0 0.0 0.0 1.0 0.0 2.0)"/></g><defs><filter id="shadowFilter-p.1" filterUnits="userSpaceOnUse"><feGaussianBlur in="SourceAlpha" stdDeviation="2.0" result="blur"/><feComponentTransfer in="blur" color-interpolation-filters="sRGB"><feFuncR type="linear" slope="0" intercept="0.0"/><feFuncG type="linear" slope="0" intercept="0.0"/><feFuncB type="linear" slope="0" intercept="0.0"/><feFuncA type="linear" slope="0.5" intercept="0"/></feComponentTransfer></filter></defs><g id="p.1"><path fill="#efefef" d="m23.639946 42.999546l0 176.44159l176.20657 0l0 -26.44632l-149.75966 0l0 -149.99527z" fill-rule="evenodd"/><path fill="#efefef" d="m325.39664 103.93761c1.4604492 0 2.7217407 0.53105164 3.783844 1.5931549c1.0621338 1.0621033 1.5931702 2.3233566 1.5931702 3.7837372l0 78.30342c0 1.4869537 -0.5310364 2.7614746 -1.5931702 3.8235626c-1.0621338 1.035553 -2.3234253 1.5533295 -3.783844 1.5533295l-80.77461 0c-1.460434 0 -2.7217255 -0.5177765 -3.7838135 -1.5533295c-1.062149 -1.062088 -1.5932007 -2.336609 -1.5932007 -3.8235626l0 -78.30342c0 -1.4603958 0.53105164 -2.7216415 1.5932007 -3.7837372c1.0621338 -1.0621033 2.3234253 -1.5931549 3.7838135 -1.5931549zm-80.77461 -26.44632c-8.815628 0 -16.33017 3.1066437 -22.54361 9.319939c-6.186859 6.186737 -9.280319 13.687828 -9.280319 22.503273l0 78.30342c0 8.815445 3.09346 16.329803 9.280319 22.543106c6.21344 6.186737 13.727982 9.280106 22.54361 9.280106l80.77461 0c8.789124 0 16.2771 -3.0933685 22.463959 -9.280106c6.21344 -6.2133026 9.32016 -13.727661 9.32016 -22.543106l0 -78.30342c0 -8.815437 -3.10672 -16.316528 -9.32016 -22.503273c-6.186859 -6.213295 -13.674835 -9.319939 -22.463959 -9.319939z" fill-rule="evenodd"/><path fill="#efefef" d="m496.43903 161.68938l0 31.305435l-86.15164 0c-1.4604187 0 -2.7216797 -0.5177765 -3.7838135 -1.5533295c-1.0621338 -1.062088 -1.5932007 -2.336609 -1.5932007 -3.8235626l0 -25.928543zm-117.975555 -84.19809l0 26.44632l112.59854 0c1.4604187 0 2.7216797 0.53105164 3.7838135 1.5931549c1.0621338 1.0621033 1.5932007 2.3233566 1.5932007 3.7837372l0 25.928543l-117.975555 0l0 52.374878c0 8.815445 3.0934448 16.329803 9.280304 22.543106c6.21344 6.186737 13.727997 9.280106 22.54361 9.280106l112.55875 0l0 -110.12663c0 -8.815437 -3.0934448 -16.316528 -9.280334 -22.503273c-6.1868896 -6.213295 -13.688171 -9.319939 -22.503784 -9.319939z" fill-rule="evenodd"/><path fill="#efefef" d="m653.8035 103.93761c1.4603882 0 2.7216797 0.53105164 3.7838135 1.5931549c1.0621338 1.0621033 1.5932007 2.3233566 1.5932007 3.7837372l0 78.30342c0 1.4869537 -0.5310669 2.7614746 -1.5932007 3.8235626c-1.0621338 1.035553 -2.3234253 1.5533295 -3.7838135 1.5533295l-80.77466 0c-1.4603882 0 -2.7216797 -0.5177765 -3.7838135 -1.5533295c-1.0621338 -1.062088 -1.5932007 -2.336609 -1.5932007 -3.8235626l0 -78.30342c0 -1.4603958 0.5310669 -2.7216415 1.5932007 -3.7837372c1.0621338 -1.0621033 2.3234253 -1.5931549 3.7838135 -1.5931549zm5.377014 -72.92653l0 46.48021l-86.15167 0c-8.815613 0 -16.33014 3.1066437 -22.54358 9.319939c-6.1868896 6.186737 -9.280334 13.687828 -9.280334 22.503273l0 78.30342c0 8.815445 3.0934448 16.329803 9.280334 22.543106c6.21344 6.186737 13.727966 9.280106 22.54358 9.280106l112.558716 0l0 -188.43005z" fill-rule="evenodd"/><path fill="#efefef" d="m711.51855 31.011078l0 26.446323l26.4469 0l0 -26.446323zm0 46.48021l0 141.94984l26.4469 0l0 -141.94984z" fill-rule="evenodd"/><path fill="#efefef" d="m759.26605 77.49129l0 141.94984l26.407104 0l0 -110.12663c0 -1.4603958 0.5310669 -2.7216415 1.5931396 -3.7837372c1.0621338 -1.0621033 2.3234253 -1.5931549 3.7838745 -1.5931549l80.7746 0c1.4604492 0 2.7216797 0.53105164 3.7838135 1.5931549c1.0621338 1.0621033 1.5932007 2.3233566 1.5932007 3.7837372l0 110.12663l26.4469 0l0 -110.12663c0 -8.815437 -3.1066895 -16.316528 -9.320129 -22.503273c-6.1868896 -6.213295 -13.68811 -9.319939 -22.503784 -9.319939z" fill-rule="evenodd"/><path fill="#efefef" d="m1038.959 103.93761c1.4604492 0 2.7216797 0.53105164 3.7838135 1.5931549c1.0621338 1.0621033 1.5931396 2.3233566 1.5931396 3.7837372l0 78.30342c0 1.4869537 -0.53100586 2.7614746 -1.5931396 3.8235626c-1.0621338 1.035553 -2.3233643 1.5533295 -3.7838135 1.5533295l-80.7348 0c-1.4869995 0 -2.7615356 -0.5177765 -3.8236694 -1.5533295c-1.0621338 -1.062088 -1.5932007 -2.336609 -1.5932007 -3.8235626l0 -78.30342c0 -1.4603958 0.5310669 -2.7216415 1.5932007 -3.7837372c1.0621338 -1.0621033 2.33667 -1.5931549 3.8236694 -1.5931549zm-80.7348 -26.44632c-8.815674 0 -16.3302 3.1066437 -22.54364 9.319939c-6.1868896 6.186737 -9.280273 13.687828 -9.280273 22.503273l0 78.30342c0 8.815445 3.0933838 16.329803 9.280273 22.543106c6.21344 6.186737 13.727966 9.280106 22.54364 9.280106l86.111755 0l0 24.45488c0 1.4869537 -0.53100586 2.7614746 -1.5931396 3.8235626c-1.0621338 1.0621033 -2.3233643 1.5931549 -3.7838135 1.5931549l-87.58551 0l0 26.406479l87.58551 0c8.815674 0 16.316895 -3.1066284 22.503784 -9.319916c6.213379 -6.1867676 9.320068 -13.687851 9.320068 -22.50328l0 -78.30342l0 -0.2389679l0 -56.039124c0 -8.815437 -3.1066895 -16.316528 -9.320068 -22.503273c-6.1868896 -6.213295 -13.688232 -9.319939 -22.503784 -9.319939z" fill-rule="evenodd"/><path fill="#efefef" d="m1167.6929 192.99481l0 26.44632l26.407104 0l0 -26.44632z" fill-rule="evenodd"/><path fill="#efefef" d="m1291.0286 192.99481l0 26.44632l26.406982 0l0 -26.44632z" fill-rule="evenodd"/><path fill="#efefef" d="m1414.3641 192.99481l0 26.44632l26.407104 0l0 -26.44632z" fill-rule="evenodd"/></g></g></svg>