<?xml version="1.0" encoding="UTF-8"?>
<svg fill="none" stroke-linecap="square" stroke-miterlimit="10" version="1.1" viewBox="0 0 384 384" xmlns="http://www.w3.org/2000/svg" xmlns:xlink="http://www.w3.org/1999/xlink">
<clipPath id="g">
<path d="m0 0h384v384h-384v-384z"/>
</clipPath>
<g clip-path="url(#g)">
<path d="m0 0h384v384h-384z" fill="#000" fill-opacity="0" fill-rule="evenodd"/>
<g filter="url(#c)">
<use transform="translate(0 2)" xlink:href="#f"/>
</g>
<defs>
<filter id="c" filterUnits="userSpaceOnUse">
<feGaussianBlur in="SourceAlpha" result="blur" stdDeviation="2.0"/>
<feComponentTransfer color-interpolation-filters="sRGB" in="blur">
<feFuncR slope="0" type="linear"/>
<feFuncG slope="0" type="linear"/>
<feFuncB slope="0" type="linear"/>
<feFuncA slope="0.5" type="linear"/>
</feComponentTransfer>
</filter>
</defs>
<g id="f">
<path d="m192 24-144 91v154l144 91 144-91v-154z" fill="#000" fill-opacity="0" fill-rule="evenodd"/>
<path d="m192 24-144 91v154l144 91 144-91v-154z" fill-rule="evenodd" stroke="#efefef" stroke-linecap="butt" stroke-linejoin="round" stroke-width="24"/>
</g>
<g filter="url(#b)">
<use transform="translate(0 2)" xlink:href="#e"/>
</g>
<defs>
<filter id="b" filterUnits="userSpaceOnUse">
<feGaussianBlur in="SourceAlpha" result="blur" stdDeviation="2.0"/>
<feComponentTransfer color-interpolation-filters="sRGB" in="blur">
<feFuncR slope="0" type="linear"/>
<feFuncG slope="0" type="linear"/>
<feFuncB slope="0" type="linear"/>
<feFuncA slope="0.5" type="linear"/>
</feComponentTransfer>
</filter>
</defs>
<g id="e">
<path d="m188.96 88 19.04 19.22-57.279 58.205 57.12 58.313-18.719 19.221-76.241-77.534z" fill="#efefef" fill-rule="evenodd"/>
<path d="m188.96 88 19.04 19.22-57.279 58.205 57.12 58.313-18.719 19.221-76.241-77.534z" fill-rule="evenodd" stroke="#efefef" stroke-linecap="butt" stroke-linejoin="round"/>
</g>
<g filter="url(#a)">
<use transform="translate(0 2)" xlink:href="#d"/>
</g>
<defs>
<filter id="a" filterUnits="userSpaceOnUse">
<feGaussianBlur in="SourceAlpha" result="blur" stdDeviation="2.0"/>
<feComponentTransfer color-interpolation-filters="sRGB" in="blur">
<feFuncR slope="0" type="linear"/>
<feFuncG slope="0" type="linear"/>
<feFuncB slope="0" type="linear"/>
<feFuncA slope="0.5" type="linear"/>
</feComponentTransfer>
</filter>
</defs>
<g id="d">
<path d="m195.92 141.04-19.04 19.22 57.279 58.205-57.12 58.313 18.719 19.221 76.241-77.534z" fill="#efefef" fill-rule="evenodd"/>
<path d="m195.92 141.04-19.04 19.22 57.279 58.205-57.12 58.313 18.719 19.221 76.241-77.534z" fill-rule="evenodd" stroke="#efefef" stroke-linecap="butt" stroke-linejoin="round"/>
</g>
</g>
</svg>
