<svg version="1.1" viewBox="0.0 0.0 1163.6351706036746 393.6955380577428" fill="none" stroke="none" stroke-linecap="square" stroke-miterlimit="10" xmlns:xlink="http://www.w3.org/1999/xlink" xmlns="http://www.w3.org/2000/svg"><clipPath id="p.0"><path d="m0 0l1163.6351 0l0 393.69553l-1163.6351 0l0 -393.69553z" clip-rule="nonzero"/></clipPath><g clip-path="url(#p.0)"><path fill="#000000" fill-opacity="0.0" d="m0 0l1163.6351 0l0 393.69553l-1163.6351 0z" fill-rule="evenodd"/><g filter="url(#shadowFilter-p.1)"><use xlink:href="#p.1" transform="matrix(1.0 0.0 0.0 1.0 0.0 2.0)"/></g><defs><filter id="shadowFilter-p.1" filterUnits="userSpaceOnUse"><feGaussianBlur in="SourceAlpha" stdDeviation="2.0" result="blur"/><feComponentTransfer in="blur" color-interpolation-filters="sRGB"><feFuncR type="linear" slope="0" intercept="0.0"/><feFuncG type="linear" slope="0" intercept="0.0"/><feFuncB type="linear" slope="0" intercept="0.0"/><feFuncA type="linear" slope="0.5" intercept="0"/></feComponentTransfer></filter></defs><g id="p.1"><path fill="#000000" fill-opacity="0.0" d="m192.0 24.0l-144.0 91.0l0 154.0l144.0 91.0l144.0 -91.0l0 -154.0z" fill-rule="evenodd"/><path stroke="#efefef" stroke-width="24.0" stroke-linejoin="round" stroke-linecap="butt" d="m192.0 24.0l-144.0 91.0l0 154.0l144.0 91.0l144.0 -91.0l0 -154.0z" fill-rule="evenodd"/></g><g filter="url(#shadowFilter-p.2)"><use xlink:href="#p.2" transform="matrix(1.0 0.0 0.0 1.0 0.0 2.0)"/></g><defs><filter id="shadowFilter-p.2" filterUnits="userSpaceOnUse"><feGaussianBlur in="SourceAlpha" stdDeviation="2.0" result="blur"/><feComponentTransfer in="blur" color-interpolation-filters="sRGB"><feFuncR type="linear" slope="0" intercept="0.0"/><feFuncG type="linear" slope="0" intercept="0.0"/><feFuncB type="linear" slope="0" intercept="0.0"/><feFuncA type="linear" slope="0.5" intercept="0"/></feComponentTransfer></filter></defs><g id="p.2"><path fill="#efefef" d="m188.96004 88.0l19.039963 19.219673l-57.279327 58.20501l57.119873 58.312775l-18.719284 19.221466l-76.24134 -77.53424z" fill-rule="evenodd"/><path stroke="#efefef" stroke-width="1.0" stroke-linejoin="round" stroke-linecap="butt" d="m188.96004 88.0l19.039963 19.219673l-57.279327 58.20501l57.119873 58.312775l-18.719284 19.221466l-76.24134 -77.53424z" fill-rule="evenodd"/></g><g filter="url(#shadowFilter-p.3)"><use xlink:href="#p.3" transform="matrix(1.0 0.0 0.0 1.0 0.0 2.0)"/></g><defs><filter id="shadowFilter-p.3" filterUnits="userSpaceOnUse"><feGaussianBlur in="SourceAlpha" stdDeviation="2.0" result="blur"/><feComponentTransfer in="blur" color-interpolation-filters="sRGB"><feFuncR type="linear" slope="0" intercept="0.0"/><feFuncG type="linear" slope="0" intercept="0.0"/><feFuncB type="linear" slope="0" intercept="0.0"/><feFuncA type="linear" slope="0.5" intercept="0"/></feComponentTransfer></filter></defs><g id="p.3"><path fill="#efefef" d="m195.91988 141.04108l-19.039948 19.219666l57.279327 58.205017l-57.11989 58.312775l18.7193 19.221466l76.24133 -77.53424z" fill-rule="evenodd"/><path stroke="#efefef" stroke-width="1.0" stroke-linejoin="round" stroke-linecap="butt" d="m195.91988 141.04108l-19.039948 19.219666l57.279327 58.205017l-57.11989 58.312775l18.7193 19.221466l76.24133 -77.53424z" fill-rule="evenodd"/></g><g filter="url(#shadowFilter-p.4)"><use xlink:href="#p.4" transform="matrix(1.0 0.0 0.0 1.0 0.0 2.0)"/></g><defs><filter id="shadowFilter-p.4" filterUnits="userSpaceOnUse"><feGaussianBlur in="SourceAlpha" stdDeviation="2.0" result="blur"/><feComponentTransfer in="blur" color-interpolation-filters="sRGB"><feFuncR type="linear" slope="0" intercept="0.0"/><feFuncG type="linear" slope="0" intercept="0.0"/><feFuncB type="linear" slope="0" intercept="0.0"/><feFuncA type="linear" slope="0.5" intercept="0"/></feComponentTransfer></filter></defs><g id="p.4"><path fill="#efefef" d="m456.67123 74.760826c-8.815643 0 -16.33017 3.1066513 -22.54361 9.319946c-6.186859 6.186737 -9.280304 13.687828 -9.280304 22.503265l0 112.55619c0 8.815445 3.0934448 16.329803 9.280304 22.543106c6.21344 6.186737 13.727966 9.280106 22.54361 9.280106l143.86484 0l0 -26.44632l-143.86484 0c-1.486969 0 -2.7615356 -0.5177765 -3.823639 -1.5533295c-1.0355835 -1.062088 -1.5533752 -2.336609 -1.5533752 -3.8235626l0 -112.55619c0 -1.4603882 0.51779175 -2.7216415 1.5533752 -3.7837296c1.0621033 -1.0621109 2.33667 -1.5931549 3.823639 -1.5931549l143.86484 0l0 -26.446327z" fill-rule="evenodd"/><path fill="#efefef" d="m737.36566 135.45992c1.4603882 0 2.7216797 0.53105164 3.7838135 1.5931549c1.0621338 1.0621033 1.5932007 2.323349 1.5932007 3.7837372l0 78.30342c0 1.4869537 -0.5310669 2.7614746 -1.5932007 3.8235626c-1.0621338 1.035553 -2.3234253 1.5533295 -3.7838135 1.5533295l-80.77466 0c-1.4603882 0 -2.7216797 -0.5177765 -3.7838135 -1.5533295c-1.0621338 -1.062088 -1.5931396 -2.336609 -1.5931396 -3.8235626l0 -78.30342c0 -1.4603882 0.53100586 -2.721634 1.5931396 -3.7837372c1.0621338 -1.0621033 2.3234253 -1.5931549 3.7838135 -1.5931549zm-80.77466 -26.44632c-8.815613 0 -16.33014 3.1066513 -22.54358 9.319939c-6.1868896 6.186737 -9.280334 13.687828 -9.280334 22.503273l0 78.30342c0 8.815445 3.0934448 16.329803 9.280334 22.543106c6.21344 6.186737 13.727966 9.280106 22.54358 9.280106l80.77466 0c8.7890625 0 16.277039 -3.0933685 22.463928 -9.280106c6.21344 -6.2133026 9.32019 -13.727661 9.32019 -22.543106l0 -78.30342c0 -8.81543 -3.1067505 -16.31652 -9.32019 -22.503273c-6.1868896 -6.2132874 -13.674866 -9.319939 -22.463928 -9.319939z" fill-rule="evenodd"/><path fill="#efefef" d="m899.85675 135.45992c1.4603882 0 2.7216797 0.53105164 3.7838135 1.5931549c1.0621338 1.0621033 1.5932007 2.323349 1.5932007 3.7837372l0 78.30342c0 1.4869537 -0.5310669 2.7614746 -1.5932007 3.8235626c-1.0621338 1.035553 -2.3234253 1.5533295 -3.7838135 1.5533295l-80.77466 0c-1.4603882 0 -2.7216797 -0.5177765 -3.7838135 -1.5533295c-1.0621338 -1.062088 -1.5932007 -2.336609 -1.5932007 -3.8235626l0 -78.30342c0 -1.4603882 0.5310669 -2.721634 1.5932007 -3.7837372c1.0621338 -1.0621033 2.3234253 -1.5931549 3.7838135 -1.5931549zm5.377014 -72.92653l0 46.480206l-86.15167 0c-8.815613 0 -16.33014 3.1066513 -22.54358 9.319939c-6.1868896 6.186737 -9.280334 13.687828 -9.280334 22.503273l0 78.30342c0 8.815445 3.0934448 16.329803 9.280334 22.543106c6.21344 6.186737 13.727966 9.280106 22.54358 9.280106l112.558716 0l0 -188.43005z" fill-rule="evenodd"/><path fill="#efefef" d="m1066.2606 135.45992c1.4604492 0 2.7216797 0.53105164 3.7838135 1.5931549c1.0621338 1.0621033 1.5932617 2.323349 1.5932617 3.7837372l0 25.928543l-91.52869 0l0 -25.928543c0 -1.4603882 0.5310669 -2.721634 1.5932007 -3.7837372c1.0621338 -1.0621033 2.3233643 -1.5931549 3.7838135 -1.5931549zm-80.7746 -26.44632c-8.815613 0 -16.33014 3.1066513 -22.54358 9.319939c-6.1868896 6.186737 -9.280334 13.687828 -9.280334 22.503273l0 78.30342c0 8.815445 3.0934448 16.329803 9.280334 22.543106c6.21344 6.186737 13.727966 9.280106 22.54358 9.280106l112.55878 0l0 -26.44632l-112.55878 0c-1.4603882 0 -2.7216797 -0.5177765 -3.7838135 -1.5533295c-1.0621338 -1.062088 -1.5932007 -2.336609 -1.5932007 -3.8235626l0 -25.928543l117.93579 0l0 -52.374878c0 -8.81543 -3.1068115 -16.31652 -9.32019 -22.503273c-6.1868896 -6.2132874 -13.674927 -9.319939 -22.46399 -9.319939z" fill-rule="evenodd"/></g><g filter="url(#shadowFilter-p.5)"><use xlink:href="#p.5" transform="matrix(1.0 0.0 0.0 1.0 0.0 2.0)"/></g><defs><filter id="shadowFilter-p.5" filterUnits="userSpaceOnUse"><feGaussianBlur in="SourceAlpha" stdDeviation="2.0" result="blur"/><feComponentTransfer in="blur" color-interpolation-filters="sRGB"><feFuncR type="linear" slope="0" intercept="0.0"/><feFuncG type="linear" slope="0" intercept="0.0"/><feFuncB type="linear" slope="0" intercept="0.0"/><feFuncA type="linear" slope="0.5" intercept="0"/></feComponentTransfer></filter></defs><g id="p.5"><path fill="#efefef" d="m424.84778 281.0492l19.54004 53.69055l5.2187805 0l16.700043 -45.8627l16.700073 45.8627l5.303711 0l19.527924 -53.69055l-6.5538025 0l-15.583496 43.107788l-15.741272 -43.107788l-7.3062744 0l-15.656311 43.107788l-15.741241 -43.107788z" fill-rule="evenodd"/><path fill="#efefef" d="m514.40155 281.0492l0 53.69055l6.0440674 0l0 -53.69055z" fill-rule="evenodd"/><path fill="#efefef" d="m528.0514 281.0492l0 6.0438232l23.860718 0l0 47.64673l6.0440674 0l0 -47.64673l23.787842 0l0 -6.0438232z" fill-rule="evenodd"/><path fill="#efefef" d="m587.4033 281.0492l0 53.69055l6.0440063 0l0 -23.786957l42.878906 0l0 23.786957l6.1047363 0l0 -53.69055l-6.1047363 0l0 23.786957l-42.878906 0l0 -23.786957z" fill-rule="evenodd"/><path fill="#efefef" d="m669.5044 281.0492l19.54004 53.69055l5.21875 0l16.700073 -45.8627l16.700073 45.8627l5.303711 0l19.527893 -53.69055l-6.553772 0l-15.583496 43.107788l-15.741272 -43.107788l-7.3062744 0l-15.656311 43.107788l-15.741272 -43.107788z" fill-rule="evenodd"/><path fill="#efefef" d="m759.0581 281.0492l0 53.69055l6.0440674 0l0 -53.69055z" fill-rule="evenodd"/><path fill="#efefef" d="m775.463 280.97638l0 53.763367l53.692688 0l0 -6.0438232l-47.64862 0l0 -47.719543z" fill-rule="evenodd"/><path fill="#efefef" d="m833.5513 280.97638l0 53.763367l53.692627 0l0 -6.0438232l-47.64856 0l0 -47.719543z" fill-rule="evenodd"/><path fill="#efefef" d="m891.63947 281.0492l0 53.69055l6.0440674 0l0 -53.69055z" fill-rule="evenodd"/><path fill="#efefef" d="m952.8651 287.09302c0.7929077 0 1.4725952 0.28723145 2.0389404 0.86169434c0.5745239 0.5663452 0.86169434 1.25 0.86169434 2.0509949l0 19.078125l-41.604492 0l0 -19.078125c0 -0.8009949 0.28320312 -1.4846497 0.84954834 -2.0509949c0.5744629 -0.5744629 1.2622681 -0.86169434 2.0632324 -0.86169434zm-35.791077 -6.0438232c-2.4920044 0 -4.607849 0.869751 -6.347473 2.6092834c-1.739563 1.7395325 -2.609375 3.8552856 -2.609375 6.347229l0 44.73404l6.0440674 0l0 -19.612091l41.604492 0l0 19.612091l6.0440674 0l0 -44.73404c0 -2.4919739 -0.869751 -4.6076965 -2.609375 -6.347229c-1.739563 -1.7395325 -3.8513794 -2.6092834 -6.335327 -2.6092834z" fill-rule="evenodd"/><path fill="#efefef" d="m970.3102 281.0492l0 53.69055l6.0440674 0l0 -46.821472l39.371338 46.821472l8.277222 0l0 -53.69055l-6.0440674 0l0 46.83362l-39.3714 -46.83362z" fill-rule="evenodd"/></g></g></svg>