<svg version="1.1" viewBox="0.0 0.0 480.0 480.0" fill="none" stroke="none" stroke-linecap="square" stroke-miterlimit="10" xmlns:xlink="http://www.w3.org/1999/xlink" xmlns="http://www.w3.org/2000/svg"><clipPath id="p.0"><path d="m0 0l480.0 0l0 480.0l-480.0 0l0 -480.0z" clip-rule="nonzero"/></clipPath><g clip-path="url(#p.0)"><path fill="#000000" fill-opacity="0.0" d="m0 0l480.0 0l0 480.0l-480.0 0z" fill-rule="evenodd"/><path fill="#666666" d="m104.206436 413.70078l185.90514 -325.70078l83.89014 0l-185.90512 325.70078z" fill-rule="evenodd"/><path stroke="#666666" stroke-width="1.0" stroke-linejoin="round" stroke-linecap="butt" d="m104.206436 413.70078l185.90514 -325.70078l83.89014 0l-185.90512 325.70078z" fill-rule="evenodd"/><path fill="#ff5722" d="m186.4984 103.29524l-85.60417 0l-42.7659 73.820206l43.358833 74.26372z" fill-rule="evenodd"/><path stroke="#ff5722" stroke-width="1.0" stroke-linejoin="round" stroke-linecap="butt" d="m186.4984 103.29524l-85.60417 0l-42.7659 73.820206l43.358833 74.26372z" fill-rule="evenodd"/><path fill="#9c27b0" d="m57.804993 177.41685l84.71477 146.97276l-42.6912 74.26608l-85.825935 -147.64041z" fill-rule="evenodd"/><path stroke="#9c27b0" stroke-width="1.0" stroke-linejoin="round" stroke-linecap="butt" d="m57.804993 177.41685l84.71477 146.97276l-42.6912 74.26608l-85.825935 -147.64041z" fill-rule="evenodd"/><path fill="#ff5722" d="m291.50424 398.5382l85.60416 0l42.7659 -73.82022l-43.358826 -74.26372z" fill-rule="evenodd"/><path stroke="#ff5722" stroke-width="1.0" stroke-linejoin="round" stroke-linecap="butt" d="m291.50424 398.5382l85.60416 0l42.7659 -73.82022l-43.358826 -74.26372z" fill-rule="evenodd"/><path fill="#9c27b0" d="m420.19763 324.4166l-84.71475 -146.97278l42.691193 -74.26607l85.82593 147.6404z" fill-rule="evenodd"/><path stroke="#9c27b0" stroke-width="1.0" stroke-linejoin="round" stroke-linecap="butt" d="m420.19763 324.4166l-84.71475 -146.97278l42.691193 -74.26607l85.82593 147.6404z" fill-rule="evenodd"/></g></svg>