<svg version="1.1" viewBox="0.0 0.0 2076.165354330709 508.0" fill="none" stroke="none" stroke-linecap="square" stroke-miterlimit="10" xmlns:xlink="http://www.w3.org/1999/xlink" xmlns="http://www.w3.org/2000/svg"><clipPath id="p.0"><path d="m0 0l2076.1653 0l0 508.0l-2076.1653 0l0 -508.0z" clip-rule="nonzero"/></clipPath><g clip-path="url(#p.0)"><path fill="#000000" fill-opacity="0.0" d="m0 0l2076.1653 0l0 508.0l-2076.1653 0z" fill-rule="evenodd"/><g filter="url(#shadowFilter-p.1)"><use xlink:href="#p.1" transform="matrix(1.0 0.0 0.0 1.0 5.0 0.0)"/></g><defs><filter id="shadowFilter-p.1" filterUnits="userSpaceOnUse"><feGaussianBlur in="SourceAlpha" stdDeviation="11.5" result="blur"/><feComponentTransfer in="blur" color-interpolation-filters="sRGB"><feFuncR type="linear" slope="0" intercept="0.0"/><feFuncG type="linear" slope="0" intercept="0.0"/><feFuncB type="linear" slope="0" intercept="0.0"/><feFuncA type="linear" slope="0.5" intercept="0"/></feComponentTransfer></filter></defs><g id="p.1"><path fill="#666666" d="m532.56964 186.85954l53.662964 224.7704l49.216675 0l44.616943 -168.04117l44.770264 168.04117l48.14337 0l54.582947 -224.7704l-45.690186 0l-34.49768 157.00197l-39.40393 -157.00197l-53.969666 0l-41.090515 154.3955l-33.8844 -154.3955z" fill-rule="evenodd"/><path fill="#666666" d="m849.33466 186.85954l0 224.7704l45.383606 0l0 -224.7704z" fill-rule="evenodd"/><path fill="#666666" d="m939.1819 188.6994l0 222.93054l158.22925 0l0 -37.870605l-112.84564 0l0 -185.05994z" fill-rule="evenodd"/><path fill="#666666" d="m1130.9888 188.6994l0 222.93054l158.22925 0l0 -37.870605l-112.84558 0l0 -185.05994z" fill-rule="evenodd"/><path fill="#666666" d="m1320.1892 186.85954l0 224.7704l45.383667 0l0 -224.7704z" fill-rule="evenodd"/><path fill="#666666" d="m1496.9706 239.29575l30.971191 83.40729l-61.329224 0l30.358032 -83.40729zm-23.458496 -52.436203l-87.54736 224.7704l48.143433 0l18.552002 -51.056305l89.84729 0l19.625366 51.056305l49.369873 0l-90.00049 -224.7704z" fill-rule="evenodd"/><path fill="#666666" d="m1636.0344 186.85954l0 224.7704l42.163696 0l0 -146.57605l90.61389 146.57605l45.536865 0l0 -224.7704l-42.16382 0l0 150.10246l-91.99365 -150.10246z" fill-rule="evenodd"/><path stroke="#666666" stroke-width="1.0" stroke-linejoin="round" stroke-linecap="butt" d="m532.56964 186.85954l53.662964 224.7704l49.216675 0l44.616943 -168.04117l44.770264 168.04117l48.14337 0l54.582947 -224.7704l-45.690186 0l-34.49768 157.00197l-39.40393 -157.00197l-53.969666 0l-41.090515 154.3955l-33.8844 -154.3955z" fill-rule="evenodd"/><path stroke="#666666" stroke-width="1.0" stroke-linejoin="round" stroke-linecap="butt" d="m849.33466 186.85954l0 224.7704l45.383606 0l0 -224.7704z" fill-rule="evenodd"/><path stroke="#666666" stroke-width="1.0" stroke-linejoin="round" stroke-linecap="butt" d="m939.1819 188.6994l0 222.93054l158.22925 0l0 -37.870605l-112.84564 0l0 -185.05994z" fill-rule="evenodd"/><path stroke="#666666" stroke-width="1.0" stroke-linejoin="round" stroke-linecap="butt" d="m1130.9888 188.6994l0 222.93054l158.22925 0l0 -37.870605l-112.84558 0l0 -185.05994z" fill-rule="evenodd"/><path stroke="#666666" stroke-width="1.0" stroke-linejoin="round" stroke-linecap="butt" d="m1320.1892 186.85954l0 224.7704l45.383667 0l0 -224.7704z" fill-rule="evenodd"/><path stroke="#666666" stroke-width="1.0" stroke-linejoin="round" stroke-linecap="butt" d="m1496.9706 239.29575l30.971191 83.40729l-61.329224 0l30.358032 -83.40729zm-23.458496 -52.436203l-87.54736 224.7704l48.143433 0l18.552002 -51.056305l89.84729 0l19.625366 51.056305l49.369873 0l-90.00049 -224.7704z" fill-rule="evenodd"/><path stroke="#666666" stroke-width="1.0" stroke-linejoin="round" stroke-linecap="butt" d="m1636.0344 186.85954l0 224.7704l42.163696 0l0 -146.57605l90.61389 146.57605l45.536865 0l0 -224.7704l-42.16382 0l0 150.10246l-91.99365 -150.10246z" fill-rule="evenodd"/></g><g filter="url(#shadowFilter-p.2)"><use xlink:href="#p.2" transform="matrix(1.0 0.0 0.0 1.0 5.0 0.0)"/></g><defs><filter id="shadowFilter-p.2" filterUnits="userSpaceOnUse"><feGaussianBlur in="SourceAlpha" stdDeviation="11.5" result="blur"/><feComponentTransfer in="blur" color-interpolation-filters="sRGB"><feFuncR type="linear" slope="0" intercept="0.0"/><feFuncG type="linear" slope="0" intercept="0.0"/><feFuncB type="linear" slope="0" intercept="0.0"/><feFuncA type="linear" slope="0.5" intercept="0"/></feComponentTransfer></filter></defs><g id="p.2"><path fill="#aaaaaa" d="m462.5696 101.47797l18.98059 59.99202l15.421753 0l10.168182 -38.582443l10.3376465 38.582443l15.252319 0l19.263 -59.99202l-15.647705 0l-11.467407 39.316803l-9.998718 -39.316803l-15.308777 0l-10.3376465 39.316803l-11.241516 -39.316803z" fill-rule="evenodd"/><path fill="#aaaaaa" d="m560.35364 78.65614l0 14.687309l15.873657 0l0 -14.687309zm0 22.821823l0 59.99202l15.873657 0l0 -59.99202z" fill-rule="evenodd"/><path fill="#aaaaaa" d="m609.16095 80.29434l-15.930176 9.264305l0 11.919319l-7.2872314 0l0 12.653679l7.2872314 0l0 26.154716c0 5.6112976 0.16949463 9.339615 0.50842285 11.184952c0.4142456 2.598526 1.1549072 4.6635284 2.2219238 6.1950226c1.0795898 1.5189514 2.7680054 2.7617188 5.0652466 3.7283173c2.2972412 0.9540558 4.876953 1.431076 7.7391357 1.431076c4.6698 0 8.850098 -0.7908478 12.5407715 -2.3725586l-1.3557739 -12.314743c-2.7868652 1.0167999 -4.914612 1.5252075 -6.383362 1.5252075c-1.0545044 0 -1.9520264 -0.26361084 -2.692688 -0.7908478c-0.7280884 -0.52723694 -1.1988525 -1.1925659 -1.4122314 -1.9959717c-0.2008667 -0.81596375 -0.30126953 -3.6718292 -0.30126953 -8.567596l0 -24.177574l10.846069 0l0 -12.653679l-10.846069 0l0 -21.183624z" fill-rule="evenodd"/><path fill="#aaaaaa" d="m630.966 78.65614l0 82.81384l15.873718 0l0 -30.052505c0 -5.0464096 0.47698975 -8.856323 1.4310303 -11.429741c0.96661377 -2.585968 2.4855957 -4.5191727 4.556885 -5.7996063c2.071289 -1.280426 4.425049 -1.9206467 7.0612183 -1.9206467c2.2972412 0 4.2053833 0.50213623 5.724304 1.5063934c1.5315552 0.99170685 2.5985718 2.3349075 3.2011108 4.0295944c0.60253906 1.6946869 0.9038696 5.6866226 0.9038696 11.975807l0 31.690704l15.873657 0l0 -35.19306c0 -5.3853455 -0.27618408 -9.358452 -0.82855225 -11.919319c-0.5397949 -2.5608673 -1.5565796 -4.895767 -3.050415 -7.004715c-1.4813232 -2.1089478 -3.6906738 -3.841301 -6.628174 -5.197052c-2.9375 -1.355751 -6.232727 -2.0336227 -9.885742 -2.0336227c-7.117737 0 -13.237488 2.99395 -18.359192 8.98185l0 -30.447922z" fill-rule="evenodd"/><path stroke="#aaaaaa" stroke-width="1.0" stroke-linejoin="round" stroke-linecap="butt" d="m462.5696 101.47797l18.98059 59.99202l15.421753 0l10.168182 -38.582443l10.3376465 38.582443l15.252319 0l19.263 -59.99202l-15.647705 0l-11.467407 39.316803l-9.998718 -39.316803l-15.308777 0l-10.3376465 39.316803l-11.241516 -39.316803z" fill-rule="evenodd"/><path stroke="#aaaaaa" stroke-width="1.0" stroke-linejoin="round" stroke-linecap="butt" d="m560.35364 78.65614l0 14.687309l15.873657 0l0 -14.687309zm0 22.821823l0 59.99202l15.873657 0l0 -59.99202z" fill-rule="evenodd"/><path stroke="#aaaaaa" stroke-width="1.0" stroke-linejoin="round" stroke-linecap="butt" d="m609.16095 80.29434l-15.930176 9.264305l0 11.919319l-7.2872314 0l0 12.653679l7.2872314 0l0 26.154716c0 5.6112976 0.16949463 9.339615 0.50842285 11.184952c0.4142456 2.598526 1.1549072 4.6635284 2.2219238 6.1950226c1.0795898 1.5189514 2.7680054 2.7617188 5.0652466 3.7283173c2.2972412 0.9540558 4.876953 1.431076 7.7391357 1.431076c4.6698 0 8.850098 -0.7908478 12.5407715 -2.3725586l-1.3557739 -12.314743c-2.7868652 1.0167999 -4.914612 1.5252075 -6.383362 1.5252075c-1.0545044 0 -1.9520264 -0.26361084 -2.692688 -0.7908478c-0.7280884 -0.52723694 -1.1988525 -1.1925659 -1.4122314 -1.9959717c-0.2008667 -0.81596375 -0.30126953 -3.6718292 -0.30126953 -8.567596l0 -24.177574l10.846069 0l0 -12.653679l-10.846069 0l0 -21.183624z" fill-rule="evenodd"/><path stroke="#aaaaaa" stroke-width="1.0" stroke-linejoin="round" stroke-linecap="butt" d="m630.966 78.65614l0 82.81384l15.873718 0l0 -30.052505c0 -5.0464096 0.47698975 -8.856323 1.4310303 -11.429741c0.96661377 -2.585968 2.4855957 -4.5191727 4.556885 -5.7996063c2.071289 -1.280426 4.425049 -1.9206467 7.0612183 -1.9206467c2.2972412 0 4.2053833 0.50213623 5.724304 1.5063934c1.5315552 0.99170685 2.5985718 2.3349075 3.2011108 4.0295944c0.60253906 1.6946869 0.9038696 5.6866226 0.9038696 11.975807l0 31.690704l15.873657 0l0 -35.19306c0 -5.3853455 -0.27618408 -9.358452 -0.82855225 -11.919319c-0.5397949 -2.5608673 -1.5565796 -4.895767 -3.050415 -7.004715c-1.4813232 -2.1089478 -3.6906738 -3.841301 -6.628174 -5.197052c-2.9375 -1.355751 -6.232727 -2.0336227 -9.885742 -2.0336227c-7.117737 0 -13.237488 2.99395 -18.359192 8.98185l0 -30.447922z" fill-rule="evenodd"/></g><g filter="url(#shadowFilter-p.3)"><use xlink:href="#p.3" transform="matrix(1.0 0.0 0.0 1.0 5.0 0.0)"/></g><defs><filter id="shadowFilter-p.3" filterUnits="userSpaceOnUse"><feGaussianBlur in="SourceAlpha" stdDeviation="11.5" result="blur"/><feComponentTransfer in="blur" color-interpolation-filters="sRGB"><feFuncR type="linear" slope="0" intercept="0.0"/><feFuncG type="linear" slope="0" intercept="0.0"/><feFuncB type="linear" slope="0" intercept="0.0"/><feFuncA type="linear" slope="0.5" intercept="0"/></feComponentTransfer></filter></defs><g id="p.3"><path fill="#666666" d="m117.34554 429.34384l185.90512 -325.7008l83.89014 0l-185.90512 325.7008z" fill-rule="evenodd"/><path stroke="#666666" stroke-width="1.0" stroke-linejoin="round" stroke-linecap="butt" d="m117.34554 429.34384l185.90512 -325.7008l83.89014 0l-185.90512 325.7008z" fill-rule="evenodd"/></g><g filter="url(#shadowFilter-p.4)"><use xlink:href="#p.4" transform="matrix(1.0 0.0 0.0 1.0 5.0 0.0)"/></g><defs><filter id="shadowFilter-p.4" filterUnits="userSpaceOnUse"><feGaussianBlur in="SourceAlpha" stdDeviation="11.5" result="blur"/><feComponentTransfer in="blur" color-interpolation-filters="sRGB"><feFuncR type="linear" slope="0" intercept="0.0"/><feFuncG type="linear" slope="0" intercept="0.0"/><feFuncB type="linear" slope="0" intercept="0.0"/><feFuncA type="linear" slope="0.5" intercept="0"/></feComponentTransfer></filter></defs><g id="p.4"><path fill="#ff5722" d="m199.6375 118.938286l-85.604164 0l-42.7659 73.8202l43.358833 74.26373z" fill-rule="evenodd"/><path stroke="#ff5722" stroke-width="1.0" stroke-linejoin="round" stroke-linecap="butt" d="m199.6375 118.938286l-85.604164 0l-42.7659 73.8202l43.358833 74.26373z" fill-rule="evenodd"/></g><g filter="url(#shadowFilter-p.5)"><use xlink:href="#p.5" transform="matrix(1.0 0.0 0.0 1.0 5.0 0.0)"/></g><defs><filter id="shadowFilter-p.5" filterUnits="userSpaceOnUse"><feGaussianBlur in="SourceAlpha" stdDeviation="11.5" result="blur"/><feComponentTransfer in="blur" color-interpolation-filters="sRGB"><feFuncR type="linear" slope="0" intercept="0.0"/><feFuncG type="linear" slope="0" intercept="0.0"/><feFuncB type="linear" slope="0" intercept="0.0"/><feFuncA type="linear" slope="0.5" intercept="0"/></feComponentTransfer></filter></defs><g id="p.5"><path fill="#9c27b0" d="m70.9441 193.0599l84.71476 146.97275l-42.691193 74.26608l-85.825935 -147.64041z" fill-rule="evenodd"/><path stroke="#9c27b0" stroke-width="1.0" stroke-linejoin="round" stroke-linecap="butt" d="m70.9441 193.0599l84.71476 146.97275l-42.691193 74.26608l-85.825935 -147.64041z" fill-rule="evenodd"/></g><g filter="url(#shadowFilter-p.6)"><use xlink:href="#p.6" transform="matrix(1.0 0.0 0.0 1.0 5.0 0.0)"/></g><defs><filter id="shadowFilter-p.6" filterUnits="userSpaceOnUse"><feGaussianBlur in="SourceAlpha" stdDeviation="11.5" result="blur"/><feComponentTransfer in="blur" color-interpolation-filters="sRGB"><feFuncR type="linear" slope="0" intercept="0.0"/><feFuncG type="linear" slope="0" intercept="0.0"/><feFuncB type="linear" slope="0" intercept="0.0"/><feFuncA type="linear" slope="0.5" intercept="0"/></feComponentTransfer></filter></defs><g id="p.6"><path fill="#ff5722" d="m304.64334 414.18124l85.60416 0l42.7659 -73.82019l-43.358826 -74.26373z" fill-rule="evenodd"/><path stroke="#ff5722" stroke-width="1.0" stroke-linejoin="round" stroke-linecap="butt" d="m304.64334 414.18124l85.60416 0l42.7659 -73.82019l-43.358826 -74.26373z" fill-rule="evenodd"/></g><g filter="url(#shadowFilter-p.7)"><use xlink:href="#p.7" transform="matrix(1.0 0.0 0.0 1.0 5.0 0.0)"/></g><defs><filter id="shadowFilter-p.7" filterUnits="userSpaceOnUse"><feGaussianBlur in="SourceAlpha" stdDeviation="11.5" result="blur"/><feComponentTransfer in="blur" color-interpolation-filters="sRGB"><feFuncR type="linear" slope="0" intercept="0.0"/><feFuncG type="linear" slope="0" intercept="0.0"/><feFuncB type="linear" slope="0" intercept="0.0"/><feFuncA type="linear" slope="0.5" intercept="0"/></feComponentTransfer></filter></defs><g id="p.7"><path fill="#9c27b0" d="m433.33673 340.05963l-84.71475 -146.97276l42.691193 -74.266075l85.82593 147.64038z" fill-rule="evenodd"/><path stroke="#9c27b0" stroke-width="1.0" stroke-linejoin="round" stroke-linecap="butt" d="m433.33673 340.05963l-84.71475 -146.97276l42.691193 -74.266075l85.82593 147.64038z" fill-rule="evenodd"/></g></g></svg>