<?xml version="1.0" encoding="UTF-8"?>
<svg fill="none" stroke-linecap="square" stroke-miterlimit="10" version="1.1" viewBox="0 0 1163.6 393.7" xmlns="http://www.w3.org/2000/svg" xmlns:xlink="http://www.w3.org/1999/xlink">
<clipPath id="k">
<path d="m0 0h1163.6v393.7h-1163.6v-393.7z"/>
</clipPath>
<g clip-path="url(#k)">
<path d="m0 0h1163.6v393.7h-1163.6z" fill="#000" fill-opacity="0" fill-rule="evenodd"/>
<g filter="url(#e)">
<use transform="translate(0 2)" xlink:href="#j"/>
</g>
<defs>
<filter id="e" filterUnits="userSpaceOnUse">
<feGaussianBlur in="SourceAlpha" result="blur" stdDeviation="2.0"/>
<feComponentTransfer color-interpolation-filters="sRGB" in="blur">
<feFuncR slope="0" type="linear"/>
<feFuncG slope="0" type="linear"/>
<feFuncB slope="0" type="linear"/>
<feFuncA slope="0.5" type="linear"/>
</feComponentTransfer>
</filter>
</defs>
<g id="j">
<path d="m192 24-144 91v154l144 91 144-91v-154z" fill="#000" fill-opacity="0" fill-rule="evenodd"/>
<path d="m192 24-144 91v154l144 91 144-91v-154z" fill-rule="evenodd" stroke="#efefef" stroke-linecap="butt" stroke-linejoin="round" stroke-width="24"/>
</g>
<g filter="url(#d)">
<use transform="translate(0 2)" xlink:href="#i"/>
</g>
<defs>
<filter id="d" filterUnits="userSpaceOnUse">
<feGaussianBlur in="SourceAlpha" result="blur" stdDeviation="2.0"/>
<feComponentTransfer color-interpolation-filters="sRGB" in="blur">
<feFuncR slope="0" type="linear"/>
<feFuncG slope="0" type="linear"/>
<feFuncB slope="0" type="linear"/>
<feFuncA slope="0.5" type="linear"/>
</feComponentTransfer>
</filter>
</defs>
<g id="i">
<path d="m188.96 88 19.04 19.22-57.279 58.205 57.12 58.313-18.719 19.221-76.241-77.534z" fill="#efefef" fill-rule="evenodd"/>
<path d="m188.96 88 19.04 19.22-57.279 58.205 57.12 58.313-18.719 19.221-76.241-77.534z" fill-rule="evenodd" stroke="#efefef" stroke-linecap="butt" stroke-linejoin="round"/>
</g>
<g filter="url(#c)">
<use transform="translate(0 2)" xlink:href="#h"/>
</g>
<defs>
<filter id="c" filterUnits="userSpaceOnUse">
<feGaussianBlur in="SourceAlpha" result="blur" stdDeviation="2.0"/>
<feComponentTransfer color-interpolation-filters="sRGB" in="blur">
<feFuncR slope="0" type="linear"/>
<feFuncG slope="0" type="linear"/>
<feFuncB slope="0" type="linear"/>
<feFuncA slope="0.5" type="linear"/>
</feComponentTransfer>
</filter>
</defs>
<g id="h">
<path d="m195.92 141.04-19.04 19.22 57.279 58.205-57.12 58.313 18.719 19.221 76.241-77.534z" fill="#efefef" fill-rule="evenodd"/>
<path d="m195.92 141.04-19.04 19.22 57.279 58.205-57.12 58.313 18.719 19.221 76.241-77.534z" fill-rule="evenodd" stroke="#efefef" stroke-linecap="butt" stroke-linejoin="round"/>
</g>
<g filter="url(#b)">
<use transform="translate(0 2)" xlink:href="#g"/>
</g>
<defs>
<filter id="b" filterUnits="userSpaceOnUse">
<feGaussianBlur in="SourceAlpha" result="blur" stdDeviation="2.0"/>
<feComponentTransfer color-interpolation-filters="sRGB" in="blur">
<feFuncR slope="0" type="linear"/>
<feFuncG slope="0" type="linear"/>
<feFuncB slope="0" type="linear"/>
<feFuncA slope="0.5" type="linear"/>
</feComponentTransfer>
</filter>
</defs>
<g id="g">
<path d="m456.67 74.761c-8.8156 0-16.33 3.1067-22.544 9.3199-6.1869 6.1867-9.2803 13.688-9.2803 22.503v112.56c0 8.8154 3.0934 16.33 9.2803 22.543 6.2134 6.1867 13.728 9.2801 22.544 9.2801h143.86v-26.446h-143.86c-1.487 0-2.7615-0.51778-3.8236-1.5533-1.0356-1.0621-1.5534-2.3366-1.5534-3.8236v-112.56c0-1.4604 0.51779-2.7216 1.5534-3.7837 1.0621-1.0621 2.3367-1.5932 3.8236-1.5932h143.86v-26.446z" fill="#efefef" fill-rule="evenodd"/>
<path d="m737.37 135.46c1.4604 0 2.7217 0.53105 3.7838 1.5932 1.0621 1.0621 1.5932 2.3233 1.5932 3.7837v78.303c0 1.487-0.53107 2.7615-1.5932 3.8236-1.0621 1.0356-2.3234 1.5533-3.7838 1.5533h-80.775c-1.4604 0-2.7217-0.51778-3.7838-1.5533-1.0621-1.0621-1.5931-2.3366-1.5931-3.8236v-78.303c0-1.4604 0.53101-2.7216 1.5931-3.7837 1.0621-1.0621 2.3234-1.5932 3.7838-1.5932zm-80.775-26.446c-8.8156 0-16.33 3.1067-22.544 9.3199-6.1869 6.1867-9.2803 13.688-9.2803 22.503v78.303c0 8.8154 3.0934 16.33 9.2803 22.543 6.2134 6.1867 13.728 9.2801 22.544 9.2801h80.775c8.7891 0 16.277-3.0934 22.464-9.2801 6.2134-6.2133 9.3202-13.728 9.3202-22.543v-78.303c0-8.8154-3.1068-16.317-9.3202-22.503-6.1869-6.2133-13.675-9.3199-22.464-9.3199z" fill="#efefef" fill-rule="evenodd"/>
<path d="m899.86 135.46c1.4604 0 2.7217 0.53105 3.7838 1.5932 1.0621 1.0621 1.5932 2.3233 1.5932 3.7837v78.303c0 1.487-0.53107 2.7615-1.5932 3.8236-1.0621 1.0356-2.3234 1.5533-3.7838 1.5533h-80.775c-1.4604 0-2.7217-0.51778-3.7838-1.5533-1.0621-1.0621-1.5932-2.3366-1.5932-3.8236v-78.303c0-1.4604 0.53107-2.7216 1.5932-3.7837 1.0621-1.0621 2.3234-1.5932 3.7838-1.5932zm5.377-72.927v46.48h-86.152c-8.8156 0-16.33 3.1067-22.544 9.3199-6.1869 6.1867-9.2803 13.688-9.2803 22.503v78.303c0 8.8154 3.0934 16.33 9.2803 22.543 6.2134 6.1867 13.728 9.2801 22.544 9.2801h112.56v-188.43z" fill="#efefef" fill-rule="evenodd"/>
<path d="m1066.3 135.46c1.4604 0 2.7217 0.53105 3.7838 1.5932 1.0621 1.0621 1.5933 2.3233 1.5933 3.7837v25.929h-91.529v-25.929c0-1.4604 0.53107-2.7216 1.5932-3.7837 1.0621-1.0621 2.3234-1.5932 3.7838-1.5932zm-80.775-26.446c-8.8156 0-16.33 3.1067-22.544 9.3199-6.1869 6.1867-9.2803 13.688-9.2803 22.503v78.303c0 8.8154 3.0934 16.33 9.2803 22.543 6.2134 6.1867 13.728 9.2801 22.544 9.2801h112.56v-26.446h-112.56c-1.4604 0-2.7217-0.51778-3.7838-1.5533-1.0621-1.0621-1.5932-2.3366-1.5932-3.8236v-25.929h117.94v-52.375c0-8.8154-3.1068-16.317-9.3202-22.503-6.1869-6.2133-13.675-9.3199-22.464-9.3199z" fill="#efefef" fill-rule="evenodd"/>
</g>
<g filter="url(#a)">
<use transform="translate(0 2)" xlink:href="#f"/>
</g>
<defs>
<filter id="a" filterUnits="userSpaceOnUse">
<feGaussianBlur in="SourceAlpha" result="blur" stdDeviation="2.0"/>
<feComponentTransfer color-interpolation-filters="sRGB" in="blur">
<feFuncR slope="0" type="linear"/>
<feFuncG slope="0" type="linear"/>
<feFuncB slope="0" type="linear"/>
<feFuncA slope="0.5" type="linear"/>
</feComponentTransfer>
</filter>
</defs>
<g id="f">
<path d="m424.85 281.05 19.54 53.691h5.2188l16.7-45.863 16.7 45.863h5.3037l19.528-53.691h-6.5538l-15.583 43.108-15.741-43.108h-7.3063l-15.656 43.108-15.741-43.108z" fill="#efefef" fill-rule="evenodd"/>
<path d="m514.4 281.05v53.691h6.0441v-53.691z" fill="#efefef" fill-rule="evenodd"/>
<path d="m528.05 281.05v6.0438h23.861v47.647h6.0441v-47.647h23.788v-6.0438z" fill="#efefef" fill-rule="evenodd"/>
<path d="m587.4 281.05v53.691h6.044v-23.787h42.879v23.787h6.1047v-53.691h-6.1047v23.787h-42.879v-23.787z" fill="#efefef" fill-rule="evenodd"/>
<path d="m669.5 281.05 19.54 53.691h5.2188l16.7-45.863 16.7 45.863h5.3037l19.528-53.691h-6.5538l-15.583 43.108-15.741-43.108h-7.3063l-15.656 43.108-15.741-43.108z" fill="#efefef" fill-rule="evenodd"/>
<path d="m759.06 281.05v53.691h6.0441v-53.691z" fill="#efefef" fill-rule="evenodd"/>
<path d="m775.46 280.98v53.763h53.693v-6.0438h-47.649v-47.72z" fill="#efefef" fill-rule="evenodd"/>
<path d="m833.55 280.98v53.763h53.693v-6.0438h-47.649v-47.72z" fill="#efefef" fill-rule="evenodd"/>
<path d="m891.64 281.05v53.691h6.0441v-53.691z" fill="#efefef" fill-rule="evenodd"/>
<path d="m952.87 287.09c0.79291 0 1.4726 0.28723 2.0389 0.86169 0.57452 0.56635 0.86169 1.25 0.86169 2.051v19.078h-41.604v-19.078c0-0.80099 0.2832-1.4846 0.84955-2.051 0.57446-0.57446 1.2623-0.86169 2.0632-0.86169zm-35.791-6.0438c-2.492 0-4.6078 0.86975-6.3475 2.6093-1.7396 1.7395-2.6094 3.8553-2.6094 6.3472v44.734h6.0441v-19.612h41.604v19.612h6.0441v-44.734c0-2.492-0.86975-4.6077-2.6094-6.3472-1.7396-1.7395-3.8514-2.6093-6.3353-2.6093z" fill="#efefef" fill-rule="evenodd"/>
<path d="m970.31 281.05v53.691h6.0441v-46.821l39.371 46.821h8.2772v-53.691h-6.0441v46.834l-39.371-46.834z" fill="#efefef" fill-rule="evenodd"/>
</g>
</g>
</svg>
