<?xml version="1.0" encoding="UTF-8"?>
<svg width="512px" height="512px" enable-background="new 0 0 542.183 542.183" version="1.1" viewBox="0 0 542.18 542.18" xml:space="preserve" xmlns="http://www.w3.org/2000/svg"><g transform="matrix(-1 0 0 1 542.18 0)">
	<g>
		<path class="active-path" d="m432.54 310.64c0-9.897-3.521-18.559-10.564-25.984l-204.14-203.85c-7.232-7.238-16.939-13.374-29.121-18.416-12.181-5.043-23.319-7.565-33.407-7.565h-118.77c-9.896 0-18.464 3.619-25.694 10.848-7.235 7.233-10.851 15.799-10.851 25.698v118.77c0 10.088 2.519 21.219 7.564 33.404 5.046 12.185 11.187 21.792 18.417 28.837l204.14 204.42c7.043 7.043 15.608 10.564 25.694 10.564 9.898 0 18.562-3.521 25.984-10.564l140.19-140.47c7.039-7.045 10.56-15.604 10.56-25.693zm-315.34-138.62c-7.139 7.138-15.752 10.709-25.841 10.709-10.085 0-18.698-3.571-25.837-10.709-7.139-7.139-10.705-15.749-10.705-25.837 0-10.089 3.566-18.702 10.705-25.837 7.139-7.139 15.752-10.71 25.837-10.71 10.089 0 18.702 3.571 25.841 10.71 7.135 7.135 10.707 15.749 10.707 25.837-1e-3 10.088-3.572 18.698-10.707 25.837z" data-original="#000000"/>
		<path class="active-path" d="m531.61 284.66-204.14-203.85c-7.23-7.238-16.939-13.374-29.122-18.417-12.177-5.042-23.313-7.564-33.402-7.564h-63.953c10.088 0 21.222 2.522 33.402 7.564 12.185 5.046 21.892 11.182 29.125 18.417l204.14 203.85c7.046 7.423 10.571 16.084 10.571 25.981 0 10.089-3.525 18.647-10.571 25.693l-134.19 134.19c5.718 5.9 10.759 10.182 15.133 12.847 4.38 2.666 9.996 3.998 16.844 3.998 9.903 0 18.565-3.521 25.98-10.564l140.19-140.47c7.046-7.046 10.571-15.604 10.571-25.693-4e-3 -9.898-3.525-18.559-10.571-25.982z" data-original="#000000"/>
	</g>
</g> </svg>
